<?xml version="1.0" standalone="no"?>
<!DOCTYPE svg PUBLIC "-//W3C//DTD SVG 20010904//EN"
 "http://www.w3.org/TR/2001/REC-SVG-20010904/DTD/svg10.dtd">
<svg version="1.0" xmlns="http://www.w3.org/2000/svg"
 width="265.000000pt" height="265.000000pt" viewBox="0 0 265.000000 265.000000"
 preserveAspectRatio="xMidYMid meet">
<metadata>
Created by potrace 1.14, written by Peter Selinger 2001-2017
</metadata>
<g transform="translate(0.000000,265.000000) scale(0.100000,-0.100000)"
fill="#000000" stroke="none">
<path d="M1265 2620 c-11 -5 -45 -16 -76 -24 -111 -31 -206 -149 -218 -271
l-6 -60 -48 -3 c-46 -3 -48 -4 -45 -30 3 -24 7 -27 48 -30 l45 -3 1 -102 c0
-80 5 -115 23 -165 23 -64 22 -122 -3 -122 -13 0 -19 -7 -89 -96 -35 -44 -62
-67 -100 -85 -113 -52 -154 -85 -198 -162 -23 -39 -52 -86 -65 -104 -13 -17
-33 -57 -44 -90 -12 -32 -28 -70 -35 -84 -33 -59 -116 -264 -130 -319 -22 -83
-19 -146 9 -205 33 -70 61 -92 162 -129 77 -27 90 -35 108 -68 122 -218 344
-382 598 -443 79 -19 239 -30 301 -21 l47 7 2 167 3 167 55 6 c76 8 123 32
143 74 16 34 19 35 71 35 57 0 126 -23 139 -46 5 -9 25 -14 52 -14 l45 0 0
144 c0 79 3 158 6 175 l7 31 -52 0 c-28 0 -51 -5 -51 -10 0 -17 -88 -50 -133
-50 -23 0 -77 7 -120 15 -43 8 -96 15 -118 15 -38 0 -39 1 -39 35 l0 35 58 -5
c31 -2 149 -10 260 -16 181 -10 205 -10 219 4 22 22 32 151 33 439 l1 238 -25
24 c-36 33 -33 62 8 87 55 32 126 140 126 192 0 26 -41 87 -92 135 -10 9 -18
23 -18 32 -1 20 -27 54 -32 40 -2 -6 -37 -12 -82 -14 l-80 -4 -26 -38 c-24
-36 -29 -39 -73 -38 -26 1 -76 2 -111 3 l-64 1 -5 33 c-3 21 0 35 9 40 21 12
17 48 -12 124 -43 115 -43 113 9 113 80 0 94 56 15 62 l-43 3 -6 72 c-8 85
-42 155 -104 212 -38 35 -135 81 -170 81 -8 0 -17 5 -20 10 -7 12 -42 12 -70
0z m207 -516 l140 -27 14 -33 c27 -64 23 -78 -21 -88 -22 -6 -47 -17 -55 -25
-20 -19 -111 -61 -134 -61 -44 0 -131 -58 -114 -76 2 -1 26 2 53 6 28 5 94 10
148 12 92 3 97 2 97 -18 0 -11 -6 -28 -12 -37 -25 -32 -200 -49 -282 -26 -23
6 -53 27 -76 51 -53 58 -72 44 -20 -15 43 -49 107 -77 176 -77 28 0 31 -3 27
-21 -6 -20 -11 -21 -73 -17 -58 4 -82 13 -171 61 -147 79 -143 75 -130 123 8
29 21 45 51 64 37 22 53 50 30 50 -5 0 -10 10 -10 23 0 12 -9 46 -20 75 -11
28 -19 52 -17 53 37 12 61 7 87 -20 17 -16 30 -36 30 -45 0 -8 4 -18 10 -21
13 -8 52 14 45 25 -13 21 43 89 74 90 7 0 76 -12 153 -26z m356 -305 c19 -7
21 -12 12 -28 -15 -29 -12 -122 5 -171 18 -50 11 -110 -12 -110 -10 0 -13 -6
-9 -15 3 -9 -1 -18 -9 -21 -8 -4 -15 -12 -15 -19 0 -7 -7 -18 -15 -25 -16 -13
-21 -85 -6 -94 12 -8 2 -94 -15 -134 -12 -25 -19 -30 -32 -23 -9 5 -52 25 -94
45 l-78 36 -1 62 c-1 35 -1 69 0 76 4 27 -19 153 -35 192 -10 25 -28 47 -46
56 -23 12 -29 21 -26 42 3 26 6 27 78 34 83 9 95 17 105 76 l6 37 82 -4 c45
-2 92 -7 105 -12z m232 6 c-8 -9 -30 -15 -58 -15 -55 0 -46 17 13 23 22 2 44
4 49 5 5 1 3 -5 -4 -13z m38 -35 c-38 -38 -59 -49 -57 -32 0 9 78 72 89 72 4
0 -10 -18 -32 -40z m102 -22 c0 -45 -40 -107 -104 -162 -40 -34 -56 -55 -56
-73 0 -24 -1 -25 -72 -21 -60 2 -73 6 -76 21 -3 13 3 17 22 17 33 0 33 5 0 33
-29 25 -57 125 -47 165 4 19 10 22 29 18 27 -7 77 -51 93 -83 13 -26 31 -31
31 -9 0 12 6 12 29 3 35 -13 78 2 104 38 18 25 18 25 -8 25 -14 0 -25 -4 -25
-10 0 -10 -39 -34 -46 -27 -2 2 14 25 37 50 51 59 89 65 89 15z m-170 -58 c0
-5 -2 -10 -4 -10 -3 0 -8 5 -11 10 -3 6 -1 10 4 10 6 0 11 -4 11 -10z m-7
-237 c-29 -2 -78 -2 -110 0 -32 2 -8 3 52 3 61 0 87 -1 58 -3z m-49 -104 c-8
-14 -34 -11 -34 4 0 8 3 17 7 20 9 9 34 -13 27 -24z m-814 -580 c0 -24 -23
-21 -28 4 -2 10 3 17 12 17 10 0 16 -9 16 -21z m100 -80 c0 -44 -35 -192 -47
-196 -24 -9 -27 6 -14 70 22 109 31 137 46 137 8 0 15 -5 15 -11z m385 -10
c103 -16 94 -33 -18 -37 -103 -3 -106 -9 -53 -88 23 -33 47 -56 75 -69 23 -10
41 -22 41 -27 0 -14 -54 -8 -97 12 -27 12 -45 15 -49 9 -8 -14 22 -35 79 -54
26 -9 47 -19 47 -22 0 -11 -83 8 -122 28 -52 26 -62 15 -20 -22 47 -42 24 -36
-27 7 -23 20 -45 34 -48 30 -3 -3 -26 12 -49 34 -36 33 -51 40 -83 40 -22 0
-42 3 -44 8 -6 9 13 114 23 125 4 5 38 10 76 12 38 2 87 8 109 13 56 14 73 14
160 1z m-465 -384 c0 -8 -7 -15 -15 -15 -8 0 -15 7 -15 15 0 8 7 15 15 15 8 0
15 -7 15 -15z"/>
<path d="M1982 2104 c0 -25 3 -32 9 -23 5 8 6 22 3 32 -5 15 3 17 63 17 42 0
74 -5 82 -12 11 -11 13 -10 9 2 -4 11 -24 16 -85 18 l-81 3 0 -37z"/>
<path d="M2140 2092 c0 -8 -25 -13 -72 -14 l-73 -2 69 -3 c64 -4 100 7 83 24
-4 3 -7 1 -7 -5z"/>
<path d="M1893 2034 c-13 -34 11 -49 81 -52 46 -2 64 -6 60 -14 -5 -7 -2 -8 5
-3 23 14 -3 24 -69 27 -58 3 -65 5 -68 25 -2 14 3 23 15 26 17 4 17 5 0 6 -10
0 -20 -6 -24 -15z"/>
<path d="M1983 2043 c9 -2 25 -2 35 0 9 3 1 5 -18 5 -19 0 -27 -2 -17 -5z"/>
<path d="M2063 2029 c-1 -13 5 -23 18 -26 10 -3 19 -10 19 -16 0 -6 3 -7 6 -4
10 10 -17 38 -28 31 -6 -4 -8 2 -3 15 3 11 3 21 -2 21 -5 0 -9 -9 -10 -21z"/>
</g>
</svg>
